# xmcd
#
# Track frame offsets:
#	150
#	14625
#	31050
#	44700
#	58950
#	75375
#	90675
#	103800
#	118050
#	134625
#	149100
#	165525
#	179175
#	193425
#	209850
#	225150
#	238275
#	252525
#
# Disc length: 3590
#
# Revision: 2
# Processed by: cddbd v1.5.2PL0 Copyright (c) Steve Scherf et al.
# Submitted via: kJams Lite (Tryout) (development) 1.0patch52.37
#
DISCID=230e0412
DTITLE=Top Hits Monthly Country  - Thmc9703
DYEAR=1997
DGENRE=Karaoke
TTITLE0=Diamond Rio - Holdin' (Vocal)
TTITLE1=Reba Mcentire - How Was I To Know (Vocal)
TTITLE2=Alan Jackson - Everything I Love (Vocal)
TTITLE3=Terri Clark - Emotional Girl (Vocal)
TTITLE4=Tracy Byrd - Don't Take Her She's All I Go (Vocal)
TTITLE5=Lorrie Morgan - Good As I Was To You (Vocal)
TTITLE6=Clay Walker - Rumor Has It (Vocal)
TTITLE7=Martina Mcbride - Cry On The Shoulder Of The Road (Vocal)
TTITLE8=Ricochet - Ease My Troubled Mind (Vocal)
TTITLE9=Diamond Rio - Holdin'
TTITLE10=Reba Mcentire - How Was I To Know
TTITLE11=Alan Jackson - Everything I Love
TTITLE12=Terri Clark - Emotional Girl
TTITLE13=Tracy Byrd - Don't Take Her She's All I Go
TTITLE14=Lorrie Morgan - Good As I Was To You
TTITLE15=Clay Walker - Rumor Has It
TTITLE16=Martina Mcbride - Cry On The Shoulder Of The Road
TTITLE17=Ricochet - Ease My Troubled Mind
EXTD=
EXTT0=
EXTT1=
EXTT2=
EXTT3=
EXTT4=
EXTT5=
EXTT6=
EXTT7=
EXTT8=
EXTT9=
EXTT10=
EXTT11=
EXTT12=
EXTT13=
EXTT14=
EXTT15=
EXTT16=
EXTT17=
PLAYORDER=
